<?xml version="1.0" encoding="utf-8"?>
<svg xmlns="http://www.w3.org/2000/svg" viewBox="0 0 500 500">
  <style>
    .st0{fill:#F0F0F0;}
    .st1{fill:#5995FD;}
    .st2{fill:#FFFFFF;}
  </style>
  <circle class="st0" cx="250" cy="250" r="250"/>
  <g transform="translate(100,100)">
    <path class="st1" d="M150,0C67.2,0,0,67.2,0,150s67.2,150,150,150s150-67.2,150-150S232.8,0,150,0z M150,50
      c27.6,0,50,22.4,50,50s-22.4,50-50,50s-50-22.4-50-50S122.4,50,150,50z M150,260c-41.4,0-77.9-21.1-99.2-53.2
      c0.8-33,66.2-51.2,99.2-51.2s98.4,18.2,99.2,51.2C227.9,238.9,191.4,260,150,260z"/>
  </g>
</svg> 